<?xml version="1.0" standalone="no"?>
<!DOCTYPE svg PUBLIC "-//W3C//DTD SVG 20010904//EN"
 "http://www.w3.org/TR/2001/REC-SVG-20010904/DTD/svg10.dtd">
<svg version="1.0" xmlns="http://www.w3.org/2000/svg"
 width="464.000000pt" height="483.000000pt" viewBox="0 0 464.000000 483.000000"
 preserveAspectRatio="xMidYMid meet">

<g transform="translate(0.000000,483.000000) scale(0.100000,-0.100000)"
fill="#000000" stroke="none">
<path d="M2018 4056 c-21 -8 -73 -45 -116 -84 -83 -75 -99 -82 -237 -102 -112
-17 -173 -42 -222 -92 -80 -82 -94 -153 -58 -293 42 -166 40 -171 -94 -262
-143 -97 -157 -156 -91 -364 21 -69 31 -115 27 -132 -4 -14 -36 -61 -71 -104
l-64 -78 315 -3 c174 -1 318 0 320 2 3 2 -12 26 -31 54 -20 27 -36 54 -36 59
0 6 17 22 38 35 20 14 67 54 103 89 92 90 136 181 149 309 13 129 30 169 96
230 85 77 152 94 347 88 126 -4 162 -9 210 -27 113 -44 207 -144 244 -261 25
-79 25 -416 0 -509 -10 -35 -16 -66 -14 -68 2 -2 146 -2 320 -1 l317 3 -65 79
c-35 44 -67 91 -70 106 -3 15 9 72 31 145 60 199 43 255 -107 356 -48 32 -94
69 -100 81 -7 14 -9 44 -5 85 9 86 -8 137 -61 189 -45 44 -98 64 -175 64 -88
1 -166 60 -189 143 -28 106 -80 160 -170 178 -47 9 -62 8 -116 -10 -101 -34
-125 -29 -203 45 -61 58 -146 77 -222 50z"/>
<path d="M1915 2343 c-28 -7 -43 -23 -22 -23 15 0 17 -13 17 -108 0 -71 -4
-112 -12 -120 -9 -9 -4 -12 23 -12 l34 0 -3 126 -4 125 33 -3 c71 -7 81 -109
11 -116 -17 -2 -32 -7 -32 -13 0 -5 4 -9 9 -9 6 0 22 -24 38 -52 23 -44 33
-54 58 -56 29 -3 29 -3 9 12 -11 8 -29 33 -39 55 l-18 41 27 21 c29 23 35 71
12 101 -24 32 -83 45 -141 31z"/>
<path d="M2408 2343 c-29 -4 -39 -23 -13 -23 23 0 22 -196 -2 -222 -15 -17
-13 -18 54 -18 56 0 76 4 97 21 31 24 34 61 7 88 -19 19 -19 22 -4 51 12 25
13 36 3 60 -17 42 -62 55 -142 43z m109 -39 c15 -24 15 -29 2 -53 -9 -16 -25
-27 -42 -29 -32 -4 -26 -22 7 -22 56 0 74 -83 22 -96 -58 -14 -61 -8 -64 114
l-3 112 30 0 c22 0 35 -8 48 -26z"/>
<path d="M2798 2334 c-38 -20 -58 -63 -58 -124 0 -85 36 -129 105 -130 40 0
85 22 85 41 0 6 -12 1 -26 -10 -73 -57 -147 18 -130 132 8 54 37 87 76 87 33
0 55 -29 45 -60 -5 -15 -3 -18 9 -14 30 11 31 46 2 71 -31 26 -69 29 -108 7z"/>
<path d="M1710 2325 c9 -11 5 -34 -24 -116 -20 -56 -44 -108 -54 -115 -15 -12
-13 -13 19 -14 32 0 36 2 32 23 -2 12 0 34 6 50 9 24 16 27 54 27 42 0 44 -2
55 -37 8 -27 8 -40 0 -50 -8 -10 -3 -13 26 -13 34 0 47 12 27 25 -6 3 -27 57
-48 120 l-37 115 -34 0 c-29 0 -33 -2 -22 -15z m53 -77 l16 -48 -36 0 c-32 0
-35 2 -29 25 9 36 26 78 30 74 2 -2 10 -25 19 -51z"/>
<path d="M2188 2333 c6 -2 12 -12 12 -21 0 -34 -64 -198 -84 -214 -21 -17 -20
-18 18 -18 29 0 37 3 33 14 -3 8 -1 31 4 50 9 34 12 36 54 36 41 0 44 -2 55
-35 9 -28 9 -39 0 -50 -11 -13 -6 -15 30 -15 40 0 42 1 28 18 -9 9 -32 68 -53
130 l-37 112 -36 -1 c-20 0 -31 -3 -24 -6z m66 -110 c7 -21 4 -23 -28 -23 -20
0 -36 1 -36 3 0 2 8 26 17 53 l17 49 12 -30 c6 -17 15 -40 18 -52z"/>
<path d="M2623 2329 c14 -8 17 -26 17 -116 0 -89 -3 -108 -17 -119 -16 -12
-12 -13 31 -14 47 0 48 1 33 18 -13 14 -17 39 -17 105 0 47 4 97 10 111 9 25
9 26 -33 26 -33 -1 -38 -3 -24 -11z"/>
<path d="M1150 1907 c0 -55 55 -175 113 -250 l30 -38 -19 -52 c-14 -42 -18
-92 -22 -271 -2 -123 0 -222 5 -227 12 -12 2034 -12 2046 0 4 4 7 107 5 227
-3 215 -4 220 -30 278 -16 32 -28 60 -28 61 0 1 27 20 60 41 46 29 66 50 90
95 16 31 33 78 36 103 l7 46 -399 0 -399 -1 45 -39 c30 -27 81 -54 161 -85
137 -54 222 -105 193 -115 -105 -39 -449 -45 -645 -12 -188 32 -390 106 -461
169 -16 15 -15 18 22 44 22 16 40 31 40 34 0 3 -191 5 -425 5 -345 0 -425 -2
-425 -13z m689 -115 c98 -77 240 -143 402 -185 168 -45 231 -52 474 -51 196 0
245 3 329 22 55 11 103 19 108 16 19 -12 48 -85 58 -145 5 -35 10 -119 10
-187 l0 -122 -937 2 -938 3 -3 105 c-2 58 2 141 7 185 30 225 195 374 425 384
17 1 42 -10 65 -27z"/>
<path d="M2125 1417 c-11 -9 -15 -19 -10 -27 6 -10 10 -8 17 9 5 14 15 21 25
19 24 -5 29 -39 8 -55 -16 -11 -16 -13 -2 -18 37 -15 26 -65 -14 -65 -17 0
-24 11 -20 33 0 4 -3 7 -9 7 -14 0 -13 -23 2 -38 28 -28 78 -7 78 34 0 12 -8
25 -17 29 -17 6 -17 7 0 16 23 13 22 46 -2 59 -26 13 -33 13 -56 -3z"/>
<path d="M1928 1383 c4 -28 7 -33 11 -19 6 15 11 10 26 -25 24 -56 24 -56 35
-39 13 20 12 33 0 25 -6 -4 -20 16 -32 44 -25 61 -46 68 -40 14z"/>
<path d="M2025 1384 c-19 -45 -19 -57 0 -24 l13 25 7 -28 c4 -15 5 -41 3 -57
-3 -18 0 -30 6 -30 7 0 11 27 11 75 0 85 -15 99 -40 39z"/>
<path d="M2308 1354 c3 -48 0 -69 -10 -75 -10 -7 -8 -9 7 -9 18 0 20 5 17 55
-3 35 0 55 7 55 6 0 11 -4 11 -9 0 -5 7 -25 16 -46 11 -27 18 -35 26 -27 8 8
7 15 -4 25 -7 8 -20 33 -28 56 -8 25 -19 41 -29 41 -13 0 -15 -11 -13 -66z"/>
<path d="M2411 1389 c-15 -42 -14 -46 4 -23 15 18 15 15 13 -39 -2 -47 0 -57
13 -57 13 0 14 8 8 58 -5 31 -6 65 -3 75 10 32 -24 18 -35 -14z"/>
<path d="M2495 1371 c-3 -5 -1 -12 5 -16 5 -3 10 -24 10 -46 0 -21 3 -39 8
-39 4 0 5 25 4 55 -4 51 -13 68 -27 46z"/>
<path d="M2569 1379 c-6 -41 -2 -109 7 -109 11 0 12 95 1 106 -4 4 -7 5 -8 3z"/>
<path d="M2616 1367 c3 -10 9 -15 12 -12 3 3 0 11 -7 18 -10 9 -11 8 -5 -6z"/>
<path d="M2667 1362 c-22 -24 -21 -55 1 -75 24 -22 45 -21 65 1 21 23 21 41 1
70 -18 27 -45 28 -67 4z m59 -16 c10 -41 1 -61 -26 -61 -27 0 -36 20 -26 61 4
15 14 24 26 24 12 0 22 -9 26 -24z"/>
<path d="M1917 1291 c-3 -14 0 -21 9 -21 16 0 18 9 5 28 -6 10 -10 9 -14 -7z"/>
</g>
</svg>
